<?xml version="1.0" standalone="no"?><!DOCTYPE svg PUBLIC "-//W3C//DTD SVG 1.1//EN" "http://www.w3.org/Graphics/SVG/1.1/DTD/svg11.dtd"><svg t="1621046305805" class="icon" viewBox="0 0 1024 1024" version="1.1" xmlns="http://www.w3.org/2000/svg" p-id="29324" xmlns:xlink="http://www.w3.org/1999/xlink" width="200" height="200"><defs><style type="text/css"></style></defs><path d="M352.256 240.64c55.296 0 99.328-45.056 99.328-99.328 0-55.296-45.056-99.328-99.328-99.328-55.296 0-99.328 45.056-99.328 99.328S296.96 240.64 352.256 240.64zM771.072 640c44.032 0 79.872-35.84 79.872-79.872s-35.84-79.872-79.872-79.872-79.872 35.84-79.872 79.872S727.04 640 771.072 640zM846.848 738.304l24.576-22.528 99.328-133.12-24.576-22.528-99.328 111.616L696.32 671.744 636.928 604.16c8.192-4.096 14.336-10.24 14.336-11.264L430.08 280.576 273.408 280.576 53.248 592.896c0 1.024 20.48 25.6 43.008 6.144 49.152-40.96 153.6-123.904 152.576-123.904l24.576 0-122.88 234.496 122.88 0 49.152 288.768 58.368 0L430.08 710.656l122.88 0L430.08 476.16l24.576 0c0 0 71.68 57.344 124.928 99.328l-7.168 6.144 99.328 133.12L696.32 737.28l0 44.032-50.176 66.56 50.176 44.032 50.176 105.472 50.176 0 50.176-105.472 50.176-44.032-50.176-66.56C846.848 781.312 846.848 738.304 846.848 738.304z" fill="#ff8100" p-id="29325"></path></svg>