<?xml version="1.0" standalone="no"?><!DOCTYPE svg PUBLIC "-//W3C//DTD SVG 1.1//EN" "http://www.w3.org/Graphics/SVG/1.1/DTD/svg11.dtd"><svg t="1637408856154" class="icon" viewBox="0 0 1024 1024" version="1.1" xmlns="http://www.w3.org/2000/svg" p-id="42979" xmlns:xlink="http://www.w3.org/1999/xlink" width="255" height="255"><defs><style type="text/css"></style></defs><path d="M808.53333333 537.49333333h-43.30666666v-43.30666666a34.304 34.304 0 1 0-68.608 0v43.30666666H653.33333333a34.304 34.304 0 1 0 0 68.608h43.30666667v43.30666667a34.304 34.304 0 1 0 68.608 0v-43.30666667H808.53333333a34.304 34.304 0 0 0 0-68.608z m127.56266667-170.85866666A290.13333333 290.13333333 0 0 0 442.77333333 537.856H226.45333333v-307.52h293.16266667a34.13333333 34.13333333 0 0 0 0-68.26666667H37.056a34.13333333 34.13333333 0 1 0 0 68.26666667h121.51466667v375.40266667H442.77333333a290.13333333 290.13333333 0 1 0 493.32266667-239.104zM730.944 793.664c-122.336 0-221.86666667-99.53066667-221.86666667-221.86666667s99.53066667-221.86666667 221.86666667-221.86666666 221.86666667 99.53066667 221.86666667 221.86666666-99.47733333 221.86666667-221.86666667 221.86666667z" p-id="42980" fill="#707070"></path></svg>