<?xml version="1.0" standalone="no"?><!DOCTYPE svg PUBLIC "-//W3C//DTD SVG 1.1//EN" "http://www.w3.org/Graphics/SVG/1.1/DTD/svg11.dtd"><svg t="1621045874854" class="icon" viewBox="0 0 1024 1024" version="1.1" xmlns="http://www.w3.org/2000/svg" p-id="12546" xmlns:xlink="http://www.w3.org/1999/xlink" width="200" height="200"><defs><style type="text/css"></style></defs><path d="M629.458824 692.705882a18.070588 18.070588 0 0 1 18.070588 18.070589v57.223529h57.223529a18.070588 18.070588 0 0 1 18.070588 18.070588v54.211765a18.070588 18.070588 0 0 1-18.070588 18.070588h-57.223529v57.22353a18.070588 18.070588 0 0 1-18.070588 18.070588h-54.211765a18.070588 18.070588 0 0 1-18.070588-18.070588V858.352941h-57.22353a18.070588 18.070588 0 0 1-18.070588-18.070588v-54.211765a18.070588 18.070588 0 0 1 18.070588-18.070588H557.176471v-57.223529a18.070588 18.070588 0 0 1 18.070588-18.070589h54.211765zM331.294118 15.058824C372.856471 15.058824 406.588235 48.790588 406.588235 90.352941v15.058824h135.529412c38.972235 0 70.836706 29.635765 74.691765 67.584l0.602353 7.710117V376.470588h256c38.972235 0 71.077647 29.635765 74.932706 67.584l0.361411 7.710118v331.294118a75.294118 75.294118 0 0 1-67.584 74.932705L873.411765 858.352941h-71.198118a18.070588 18.070588 0 0 1-18.070588-18.070588v-54.211765a18.070588 18.070588 0 0 1 18.070588-18.070588h38.068706a18.070588 18.070588 0 0 0 18.070588-18.070588V484.894118a18.070588 18.070588 0 0 0-18.070588-18.070589H304.188235a18.070588 18.070588 0 0 0-18.070588 18.070589v265.035294a18.070588 18.070588 0 0 0 18.070588 18.070588h99.568941a18.070588 18.070588 0 0 1 18.070589 18.070588v54.211765a18.070588 18.070588 0 0 1-18.070589 18.070588H271.058824a75.294118 75.294118 0 0 1-74.932706-67.584L195.764706 783.058824v-331.294118c0-38.972235 29.635765-71.077647 67.584-74.932706L271.058824 376.470588H527.058824V207.811765a12.047059 12.047059 0 0 0-12.047059-12.047059H406.588235v15.058823a75.294118 75.294118 0 0 1-67.584 74.932706L331.294118 286.117647h-240.941177C48.790588 286.117647 15.058824 252.385882 15.058824 210.823529v-120.470588C15.058824 48.790588 48.790588 15.058824 90.352941 15.058824zM304.188235 105.411765H117.458824a12.047059 12.047059 0 0 0-12.047059 12.047059v66.258823c0 6.625882 5.421176 12.047059 12.047059 12.047059h186.729411a12.047059 12.047059 0 0 0 12.047059-12.047059V117.458824a12.047059 12.047059 0 0 0-12.047059-12.047059z" fill="#1763FB" p-id="12547"></path></svg>