<?xml version="1.0" standalone="no"?><!DOCTYPE svg PUBLIC "-//W3C//DTD SVG 1.1//EN" "http://www.w3.org/Graphics/SVG/1.1/DTD/svg11.dtd"><svg t="1633856232471" class="icon" viewBox="0 0 1024 1024" version="1.1" xmlns="http://www.w3.org/2000/svg" p-id="5138" xmlns:xlink="http://www.w3.org/1999/xlink" width="200" height="200"><defs><style type="text/css"></style></defs><path d="M497.04 365.74v0.33c0.29 30.83 25.47 55.72 56.17 55.72h87.08v86.49c-0.1 15.06 5.67 29.25 16.24 39.97 10.58 10.72 24.69 16.68 39.81 16.78 30.91 0 56.05-25.43 56.05-56.69V421.8h86.54c31.26 0 56.69-25.15 56.69-56.05s-25.43-56.05-56.69-56.05h-86.55v-86.56c0-31.26-25.15-56.69-56.05-56.69s-56.05 25.43-56.05 56.69v86.56h-86.56c-31.25-0.01-56.68 25.13-56.68 56.04z" p-id="5139" fill="#0f63d3"></path><path d="M857.72 674.25c-24.39-24.3-56.89-37.68-91.49-37.68h-134.3c-52.69 0-100.06 32.14-119.73 80.63H331.32V226.09h139.52l0.43-0.01c25.89-1.34 46.16-22.69 46.16-48.61 0-25.92-20.28-47.27-46.16-48.61l-0.21-0.01H175.09l-0.43 0.01c-25.89 1.34-46.16 22.69-46.16 48.61 0 25.92 20.28 47.27 46.16 48.61l59.42 0.01v537.82c0.05 22.6 15.33 41.98 37.23 47.33a49.22 49.22 0 0 0 17.51 3.2h223.32c19.66 48.5 67 80.63 119.66 80.63H766.6c71.21-0.06 129.1-58.05 129.03-129.25 0.01-34.69-13.46-67.21-37.91-91.57zM599.99 765.5c0.12-17.52 14.41-31.68 31.95-31.68H766.76c8.49 0.05 16.46 3.4 22.43 9.43 5.97 6.04 9.24 14.04 9.19 22.6 0.03 8.45-3.39 16.72-9.38 22.69-5.99 5.97-14.23 9.35-22.78 9.3H632.15c-18.04 0-32.16-14.06-32.16-32.01v-0.33z" p-id="5140" fill="#0f63d3"></path></svg>