<?xml version="1.0" standalone="no"?><!DOCTYPE svg PUBLIC "-//W3C//DTD SVG 1.1//EN" "http://www.w3.org/Graphics/SVG/1.1/DTD/svg11.dtd"><svg t="1620956202051" class="icon" viewBox="0 0 1024 1024" version="1.1" xmlns="http://www.w3.org/2000/svg" p-id="68787" xmlns:xlink="http://www.w3.org/1999/xlink" width="200" height="200"><defs><style type="text/css"></style></defs><path d="M288.225882 783.058824h61.138824c14.456471-85.232941 88.244706-150.588235 177.694118-150.588236s163.237647 65.355294 177.694117 150.588236h61.138824c-10.24-81.618824-61.44-150.588235-132.216471-185.825883A180.073412 180.073412 0 0 0 707.764706 451.764706c0-99.689412-81.016471-180.705882-180.705882-180.705882s-180.705882 81.016471-180.705883 180.705882c0 59.632941 29.214118 112.64 74.089412 145.468235A241.754353 241.754353 0 0 0 288.225882 783.058824z m118.362353-331.294118c0-66.56 53.910588-120.470588 120.470589-120.470588s120.470588 53.910588 120.470588 120.470588-53.910588 120.470588-120.470588 120.470588-120.470588-53.910588-120.470589-120.470588z m-210.823529 60.235294c16.564706 0 30.117647-13.552941 30.117647-30.117647s-13.552941-30.117647-30.117647-30.117647h-90.352941c-16.564706 0-30.117647 13.552941-30.117647 30.117647s13.552941 30.117647 30.117647 30.117647h90.352941z m-90.352941-150.588235h90.352941c16.564706 0 30.117647-13.552941 30.117647-30.117647s-13.552941-30.117647-30.117647-30.117647h-90.352941c-16.564706 0-30.117647 13.552941-30.117647 30.117647s13.552941 30.117647 30.117647 30.117647z m783.058823-331.294118h-722.823529c-33.129412 0-60.235294 27.105882-60.235294 60.235294v120.470588h60.235294V120.470588c0-16.564706 13.552941-30.117647 30.117647-30.117647h662.588235c16.564706 0 30.117647 13.552941 30.117647 30.117647v783.058824c0 16.564706-13.552941 30.117647-30.117647 30.117647h-662.588235c-16.564706 0-30.117647-13.552941-30.117647-30.117647V602.352941h-60.235294v331.294118c0 33.129412 27.105882 60.235294 60.235294 60.235294h722.823529c33.129412 0 60.235294-27.105882 60.235294-60.235294V90.352941c0-33.129412-27.105882-60.235294-60.235294-60.235294z" fill="#455F96" p-id="68788"></path></svg>