<?xml version="1.0" encoding="UTF-8" standalone="no"?>
<svg
   xmlns:dc="http://purl.org/dc/elements/1.1/"
   xmlns:cc="http://creativecommons.org/ns#"
   xmlns:rdf="http://www.w3.org/1999/02/22-rdf-syntax-ns#"
   xmlns:svg="http://www.w3.org/2000/svg"
   xmlns="http://www.w3.org/2000/svg"
   xmlns:sodipodi="http://sodipodi.sourceforge.net/DTD/sodipodi-0.dtd"
   xmlns:inkscape="http://www.inkscape.org/namespaces/inkscape"
   t="1634876856710"
   class="icon"
   viewBox="0 0 1024 1024"
   version="1.1"
   p-id="28985"
   width="200"
   height="200"
   id="svg46"
   sodipodi:docname="col.svg"
   inkscape:version="1.0.2 (e86c8708, 2021-01-15)">
  <metadata
     id="metadata50">
    <rdf:RDF>
      <cc:Work
         rdf:about="">
        <dc:format>image/svg+xml</dc:format>
        <dc:type
           rdf:resource="http://purl.org/dc/dcmitype/StillImage" />
        <dc:title></dc:title>
      </cc:Work>
    </rdf:RDF>
  </metadata>
  <sodipodi:namedview
     pagecolor="#ffffff"
     bordercolor="#666666"
     borderopacity="1"
     objecttolerance="10"
     gridtolerance="10"
     guidetolerance="10"
     inkscape:pageopacity="0"
     inkscape:pageshadow="2"
     inkscape:window-width="720"
     inkscape:window-height="480"
     id="namedview48"
     showgrid="false"
     inkscape:zoom="2.83"
     inkscape:cx="100"
     inkscape:cy="100"
     inkscape:window-x="0"
     inkscape:window-y="25"
     inkscape:window-maximized="0"
     inkscape:current-layer="svg46" />
  <defs
     id="defs42">
    <style
       type="text/css"
       id="style40" />
  </defs>
  <path
     d="m 436.48076,927.48076 c 0,4.4 3.6,8 8,8 h 56 c 4.39999,0 8,-3.6 8,-8 v -654 c 35.19999,-14.2 60,-48.7 60,-89 0,-53 -43,-95.999999 -95.99999,-95.999999 -53.00001,0 -96.00001,42.999999 -96.00001,95.999999 0,40.3 24.8,74.8 60,89 v 150.3 h -152 c -55.2,0 -100,44.8 -100,100 v 403.7 c 0,4.4 3.6,8 8,8 h 56 c 4.4,0 8,-3.6 8,-8 v -403.7 c 0,-15.5 12.5,-28 28,-28 h 152 z m 268,-496 v 264 h -98.2 c -8.1,0 -12.79999,9.5 -7.70001,15.8 l 136.20002,172.5 c 3.89998,5 11.39999,5 15.29999,0 l 136.30001,-172.5 c 5.09999,-6.4 0.49999,-15.8 -7.70001,-15.8 h -98.2 v -264 c 0,-4.4 -3.60001,-8 -8,-8 h -60 c -4.39999,0 -8,3.6 -8,8 z"
     p-id="28986"
     fill="#0689f7"
     id="path44"
     style="stroke-width:1" />
</svg>
