<?xml version="1.0" encoding="UTF-8" standalone="no"?>
<svg
   xmlns:dc="http://purl.org/dc/elements/1.1/"
   xmlns:cc="http://creativecommons.org/ns#"
   xmlns:rdf="http://www.w3.org/1999/02/22-rdf-syntax-ns#"
   xmlns:svg="http://www.w3.org/2000/svg"
   xmlns="http://www.w3.org/2000/svg"
   xmlns:sodipodi="http://sodipodi.sourceforge.net/DTD/sodipodi-0.dtd"
   xmlns:inkscape="http://www.inkscape.org/namespaces/inkscape"
   t="1620957248232"
   class="icon"
   viewBox="0 0 1137 1024"
   version="1.1"
   p-id="83585"
   width="222.0703125"
   height="200"
   id="svg16"
   sodipodi:docname="exp.svg"
   inkscape:version="1.0.2 (e86c8708, 2021-01-15)">
  <metadata
     id="metadata20">
    <rdf:RDF>
      <cc:Work
         rdf:about="">
        <dc:format>image/svg+xml</dc:format>
        <dc:type
           rdf:resource="http://purl.org/dc/dcmitype/StillImage" />
      </cc:Work>
    </rdf:RDF>
  </metadata>
  <sodipodi:namedview
     pagecolor="#ffffff"
     bordercolor="#666666"
     borderopacity="1"
     objecttolerance="10"
     gridtolerance="10"
     guidetolerance="10"
     inkscape:pageopacity="0"
     inkscape:pageshadow="2"
     inkscape:window-width="1084"
     inkscape:window-height="635"
     id="namedview18"
     showgrid="false"
     inkscape:zoom="2.84"
     inkscape:cx="111.03516"
     inkscape:cy="100"
     inkscape:window-x="238"
     inkscape:window-y="25"
     inkscape:window-maximized="0"
     inkscape:current-layer="svg16" />
  <defs
     id="defs12">
    <style
       type="text/css"
       id="style10" />
  </defs>
  <path
     d="M 1061.7174,1003.0079 V 21.390129 c 0,-42.666666 -34.816,-77.198222 -77.76708,-77.198222 h -0.39823 c -42.95111,0 -77.824,34.588444 -77.824,77.198222 V 1003.0079 c 0,42.6098 34.87289,77.1982 77.824,77.1982 h 0.39823 c 42.95108,0 77.76708,-34.5884 77.76708,-77.1982 z m -414.26486,-0.3982 V 21.731463 A 77.937778,77.937778 0 0 0 569.2872,-55.808093 h -0.62577 c -43.17867,0 -78.16534,34.702222 -78.16534,77.596445 V 1002.5528 a 77.937778,77.937778 0 0 0 78.16534,77.6533 h 0.56889 a 77.937778,77.937778 0 0 0 78.22222,-77.5964 z m -415.28889,0.3982 V 21.390129 c 0,-42.666667 -34.816,-77.198222 -77.76711,-77.198222 h -0.39822 c -42.95112,0 -77.767116,34.588444 -77.767116,77.198222 V 1003.0079 c 0,42.6098 34.815996,77.1982 77.767116,77.1982 h 0.39822 c 42.95111,0 77.824,-34.5884 77.824,-77.1982 z"
     fill="#2e87e4"
     p-id="83586"
     id="path14" />
</svg>
