<?xml version="1.0" standalone="no"?><!DOCTYPE svg PUBLIC "-//W3C//DTD SVG 1.1//EN" "http://www.w3.org/Graphics/SVG/1.1/DTD/svg11.dtd"><svg t="1637408996607" class="icon" viewBox="0 0 1024 1024" version="1.1" xmlns="http://www.w3.org/2000/svg" p-id="45550" xmlns:xlink="http://www.w3.org/1999/xlink" width="255" height="255"><defs><style type="text/css"></style></defs><path d="M868 189.88H624.65a43 43 0 0 0-43 43 43 43 0 0 0 43 43H868a43 43 0 0 0 43-43 43 43 0 0 0-43-43zM505.75 107h-175a40 40 0 0 0-40 40v171.77a40 40 0 0 0 40 40h42.92l0.08 429.84a40 40 0 0 0 40 40h88a43 43 0 0 0 43-43 43 43 0 0 0-43-43h-42V554.07l43.1-1a43 43 0 0 0 41.95-44.12 43 43 0 0 0-44-41.85l-41 1V358.82h46.08a40 40 0 0 0 40-40V147a40 40 0 0 0-40.13-40z m-46 165.77h-83V193h83zM786.75 387.53h-175a40 40 0 0 0-40 40V599.3a40 40 0 0 0 40 40h175a40 40 0 0 0 40-40V427.53a40 40 0 0 0-40-40z m-46 165.77h-83v-79.77h83zM786.75 659.23h-175a40 40 0 0 0-40 40V871a40 40 0 0 0 40 40h175a40 40 0 0 0 40-40V699.23a40 40 0 0 0-40-40z m-46 165.77h-83v-79.77h83zM859.65 469.07H911v86h-51.35zM858.65 741.75H910v86h-51.35zM84.75 251.08h45.66v50.16h86v-50.16h44.05v-86H84.75v86z" p-id="45551" fill="#707070"></path></svg>