<?xml version="1.0" standalone="no"?><!DOCTYPE svg PUBLIC "-//W3C//DTD SVG 1.1//EN" "http://www.w3.org/Graphics/SVG/1.1/DTD/svg11.dtd"><svg t="1634880198578" class="icon" viewBox="0 0 1024 1024" version="1.1" xmlns="http://www.w3.org/2000/svg" p-id="46225" xmlns:xlink="http://www.w3.org/1999/xlink" width="200" height="200"><defs><style type="text/css"></style></defs><path d="M341.333333 469.333333h469.333334a42.666667 42.666667 0 0 1 0 85.333334H341.333333v170.666666h469.333334a42.666667 42.666667 0 0 1 0 85.333334H298.666667a42.538667 42.538667 0 0 1-42.666667-42.666667V298.666667H128a42.666667 42.666667 0 0 1 0-85.333334h768a42.666667 42.666667 0 0 1 0 85.333334H341.333333v170.666666z" p-id="46226" fill="#0689f7"></path><path d="M341.333333 469.333333h469.333334a42.666667 42.666667 0 0 1 0 85.333334H341.333333v170.666666h469.333334a42.666667 42.666667 0 0 1 0 85.333334H298.666667a42.538667 42.538667 0 0 1-42.666667-42.666667V298.666667H128a42.666667 42.666667 0 0 1 0-85.333334h768a42.666667 42.666667 0 0 1 0 85.333334H341.333333v170.666666z" p-id="46227" fill="#0689f7"></path></svg>