<?xml version="1.0" standalone="no"?><!DOCTYPE svg PUBLIC "-//W3C//DTD SVG 1.1//EN" "http://www.w3.org/Graphics/SVG/1.1/DTD/svg11.dtd"><svg t="1620980310966" class="icon" viewBox="0 0 1024 1024" version="1.1" xmlns="http://www.w3.org/2000/svg" p-id="15117" xmlns:xlink="http://www.w3.org/1999/xlink" width="200" height="200"><defs><style type="text/css"></style></defs><path d="M629.76 332.8c0 58.88 30.72 110.08 81.92 140.8 51.2 28.16 112.64 28.16 161.28 0 51.2-28.16 81.92-81.92 81.92-140.8s-30.72-110.08-81.92-140.8c-51.2-28.16-112.64-28.16-161.28 0-51.2 28.16-81.92 81.92-81.92 140.8z m0 0" fill="#FFBB12" p-id="15118"></path><path d="M721.92 890.88L281.6 888.32h-5.12C125.44 867.84 12.8 739.84 12.8 588.8c0-122.88 76.8-238.08 192-281.6 40.96-130.56 163.84-222.72 302.08-222.72 148.48 0 273.92 99.84 307.2 240.64 117.76 40.96 197.12 151.04 197.12 276.48 0 143.36-107.52 266.24-248.32 289.28h-2.56l-35.84 2.56c0-2.56 0-2.56-2.56-2.56z m35.84-40.96z m-473.6-38.4l437.76 2.56 33.28-2.56c102.4-15.36 181.76-107.52 181.76-212.48 0-99.84-66.56-184.32-163.84-207.36-15.36-2.56-25.6-15.36-28.16-30.72-17.92-117.76-117.76-202.24-235.52-202.24-110.08 0-207.36 76.8-232.96 184.32-2.56 12.8-12.8 23.04-25.6 28.16C153.6 401.92 89.6 488.96 89.6 588.8c0 110.08 81.92 207.36 194.56 222.72z" fill="#2E77ED" p-id="15119"></path><path d="M501.76 757.76c-10.24 0-23.04-5.12-30.72-15.36l-104.96-135.68c-12.8-17.92-10.24-40.96 7.68-53.76s40.96-10.24 53.76 7.68l104.96 135.68c12.8 17.92 10.24 40.96-7.68 53.76-5.12 5.12-12.8 7.68-23.04 7.68z" fill="#2E77ED" p-id="15120"></path><path d="M504.32 757.76c-7.68 0-15.36-2.56-23.04-7.68-17.92-12.8-20.48-38.4-7.68-53.76l104.96-135.68c12.8-17.92 38.4-20.48 53.76-7.68 17.92 12.8 20.48 38.4 7.68 53.76L535.04 742.4c-7.68 10.24-17.92 15.36-30.72 15.36z" fill="#2E77ED" p-id="15121"></path><path d="M506.88 737.28c-20.48 0-38.4-17.92-38.4-38.4V376.32c0-20.48 17.92-38.4 38.4-38.4s38.4 17.92 38.4 38.4v322.56c0 20.48-17.92 38.4-38.4 38.4z" fill="#2E77ED" p-id="15122"></path></svg>