<?xml version="1.0" standalone="no"?><!DOCTYPE svg PUBLIC "-//W3C//DTD SVG 1.1//EN" "http://www.w3.org/Graphics/SVG/1.1/DTD/svg11.dtd"><svg t="1620953689962" class="icon" viewBox="0 0 1024 1024" version="1.1" xmlns="http://www.w3.org/2000/svg" p-id="51530" xmlns:xlink="http://www.w3.org/1999/xlink" width="200" height="200"><defs><style type="text/css"></style></defs><path d="M16 16m69.333333 0l853.333334 0q69.333333 0 69.333333 69.333333l0 853.333334q0 69.333333-69.333333 69.333333l-853.333334 0q-69.333333 0-69.333333-69.333333l0-853.333334q0-69.333333 69.333333-69.333333Z" fill="#F1AC13" p-id="51531"></path><path d="M802.474667 433.194667l-258.858667-199.765334a42.666667 42.666667 0 0 0-52.096 0l-258.901333 199.765334c-32.213333 24.874667-14.634667 76.458667 26.069333 76.458666h517.76c40.704 0 58.282667-51.626667 26.026667-76.458666z" fill="#FFFFFF" p-id="51532"></path><path d="M674.432 602.496v-95.36a42.666667 42.666667 0 0 0-42.666667-42.666667H400.896a42.666667 42.666667 0 0 0-42.666667 42.666667v95.36a42.666667 42.666667 0 0 0 42.666667 42.666667h230.869333a42.666667 42.666667 0 0 0 42.666667-42.666667zM353.578667 710.997333a22.613333 22.613333 0 0 1 22.570666-22.613333h273.92a22.613333 22.613333 0 1 1 0 45.226667h-273.92a22.613333 22.613333 0 0 1-22.613333-22.613334zM353.578667 801.322667a22.613333 22.613333 0 0 1 22.570666-22.570667h273.92a22.613333 22.613333 0 1 1 0 45.184h-273.92a22.613333 22.613333 0 0 1-22.613333-22.613333z" fill="#FFFFFF" p-id="51533"></path></svg>