<?xml version="1.0" standalone="no"?><!DOCTYPE svg PUBLIC "-//W3C//DTD SVG 1.1//EN" "http://www.w3.org/Graphics/SVG/1.1/DTD/svg11.dtd"><svg t="1620961348253" class="icon" viewBox="0 0 1024 1024" version="1.1" xmlns="http://www.w3.org/2000/svg" p-id="121976" xmlns:xlink="http://www.w3.org/1999/xlink" width="200" height="200"><defs><style type="text/css"></style></defs><path d="M0 0m204.8 0l614.4 0q204.8 0 204.8 204.8l0 614.4q0 204.8-204.8 204.8l-614.4 0q-204.8 0-204.8-204.8l0-614.4q0-204.8 204.8-204.8Z" fill="#4AB3C4" p-id="121977"></path><path d="M329.7792 250.0608l39.168-73.8304L326.2464 153.6l-44.9536 84.5312-6.912 12.9536a21.5552 21.5552 0 0 0 8.9088 29.1328l97.28 51.6608 22.6816-42.7008z" fill="#FFFFFF" p-id="121978"></path><path d="M675.3792 790.6304l-39.1168 73.7792 42.7008 22.6304 44.8512-84.5312 6.912-12.9536a21.5552 21.5552 0 0 0-8.9088-29.1328l-97.28-51.6608-22.6816 42.7008z" fill="#FFFFFF" p-id="121979"></path><path d="M635.5968 756.992a271.36 271.36 0 0 1-367.0528-365.9264 41.8304 41.8304 0 0 0-73.984-39.0656 354.816 354.816 0 0 0 480.3584 478.72 41.8304 41.8304 0 0 0-37.1712-74.9568l-2.1504 1.1264zM832.6144 381.952a354.9696 354.9696 0 0 0-465.2544-188.5184q-13.7728 5.8368-27.0336 12.8a41.8304 41.8304 0 0 0 38.912 73.984 271.36 271.36 0 0 1 366.2336 366.2336 41.8304 41.8304 0 1 0 72.96 40.96l0.9728-1.8432a355.5328 355.5328 0 0 0 13.0048-303.5648z" fill="#FFFFFF" p-id="121980"></path><path d="M607.6416 432.6912H406.3232a35.84 35.84 0 0 1-35.84-35.84 35.84 35.84 0 0 1 35.84-35.84h201.3184a35.84 35.84 0 0 1 35.84 35.84 35.84 35.84 0 0 1-35.84 35.84z" fill="#FFFFFF" p-id="121981"></path><path d="M607.6416 559.5136H406.3232a35.84 35.84 0 0 1-35.84-35.84 35.84 35.84 0 0 1 35.84-35.84h201.3184a35.84 35.84 0 0 1 35.84 35.84 35.84 35.84 0 0 1-35.84 35.84z" fill="#FFFFFF" p-id="121982"></path><path d="M607.6416 686.2848H406.3232a35.84 35.84 0 0 1-35.84-35.84 35.84 35.84 0 0 1 35.84-35.84h201.3184a35.84 35.84 0 0 1 35.84 35.84 35.84 35.84 0 0 1-35.84 35.84z" fill="#FFFFFF" p-id="121983"></path></svg>