<?xml version="1.0" encoding="UTF-8" standalone="no"?>
<svg
   xmlns:dc="http://purl.org/dc/elements/1.1/"
   xmlns:cc="http://creativecommons.org/ns#"
   xmlns:rdf="http://www.w3.org/1999/02/22-rdf-syntax-ns#"
   xmlns:svg="http://www.w3.org/2000/svg"
   xmlns="http://www.w3.org/2000/svg"
   xmlns:sodipodi="http://sodipodi.sourceforge.net/DTD/sodipodi-0.dtd"
   xmlns:inkscape="http://www.inkscape.org/namespaces/inkscape"
   t="1620954303937"
   class="icon"
   viewBox="0 0 1024 1024"
   version="1.1"
   p-id="51788"
   width="200"
   height="200"
   id="svg255"
   sodipodi:docname="升级 (22).svg"
   inkscape:version="1.0.2 (e86c8708, 2021-01-15)">
  <metadata
     id="metadata259">
    <rdf:RDF>
      <cc:Work
         rdf:about="">
        <dc:format>image/svg+xml</dc:format>
        <dc:type
           rdf:resource="http://purl.org/dc/dcmitype/StillImage" />
        <dc:title />
      </cc:Work>
    </rdf:RDF>
  </metadata>
  <sodipodi:namedview
     pagecolor="#ffffff"
     bordercolor="#666666"
     borderopacity="1"
     objecttolerance="10"
     gridtolerance="10"
     guidetolerance="10"
     inkscape:pageopacity="0"
     inkscape:pageshadow="2"
     inkscape:window-width="1099"
     inkscape:window-height="635"
     id="namedview257"
     showgrid="false"
     inkscape:zoom="2.84"
     inkscape:cx="100"
     inkscape:cy="81.558099"
     inkscape:window-x="0"
     inkscape:window-y="25"
     inkscape:window-maximized="0"
     inkscape:current-layer="svg255"
     inkscape:document-rotation="0" />
  <defs
     id="defs251">
    <style
       type="text/css"
       id="style249" />
  </defs>
  <path
     d="m 512.5632,0 a 512,-512 0 1 0 512,512 512,-512 0 0 0 -512,-512 z m 280.576,577.024 -236.4416,236.4416 c -1.2288,1.1776 -2.816,1.6384 -4.096,2.6624 a 45.6704,-45.6704 0 0 1 -2.7648,4.1984 51.2,-51.2 0 0 1 -72.2944,0 L 246.0672,588.8512 a 51.2,-51.2 0 0 1 72.3456,-72.3456 L 461.3632,659.5072 V 260.8128 a 51.2,-51.2 0 0 1 102.4,0 V 658.5856 L 719.2576,503.1424 a 52.24218,-52.24218 0 0 1 73.8816,73.8816 z"
     fill="#41ce63"
     p-id="51789"
     id="path253" />
</svg>
