<?xml version="1.0" standalone="no"?><!DOCTYPE svg PUBLIC "-//W3C//DTD SVG 1.1//EN" "http://www.w3.org/Graphics/SVG/1.1/DTD/svg11.dtd"><svg t="1637409165348" class="icon" viewBox="0 0 1024 1024" version="1.1" xmlns="http://www.w3.org/2000/svg" p-id="53438" xmlns:xlink="http://www.w3.org/1999/xlink" width="255" height="255"><defs><style type="text/css"></style></defs><path d="M544 608h213.76a10.24 10.24 0 0 1 10.24 10.24v75.52a10.24 10.24 0 0 1-10.24 10.24h-43.52a10.24 10.24 0 0 0-10.24 10.24v171.52a10.24 10.24 0 0 0 10.24 10.24h171.52a10.24 10.24 0 0 0 10.24-10.24V714.24a10.24 10.24 0 0 0-10.24-10.24h-43.52a10.24 10.24 0 0 1-10.24-10.24v-139.52a10.24 10.24 0 0 0-10.24-10.24H554.24a10.24 10.24 0 0 1-10.24-10.24v-75.52a10.24 10.24 0 0 1 10.24-10.24h267.52a10.24 10.24 0 0 0 10.24-10.24V138.24a10.24 10.24 0 0 0-10.24-10.24H202.24a10.24 10.24 0 0 0-10.24 10.24v299.52a10.24 10.24 0 0 0 10.24 10.24h267.52a10.24 10.24 0 0 1 10.24 10.24v139.52a10.24 10.24 0 0 0 10.24 10.24zM266.24 192h491.52a10.24 10.24 0 0 1 10.24 10.24v171.52a10.24 10.24 0 0 1-10.24 10.24H266.24a10.24 10.24 0 0 1-10.24-10.24V202.24a10.24 10.24 0 0 1 10.24-10.24z m555.52 640h-43.52a10.24 10.24 0 0 1-10.24-10.24v-43.52a10.24 10.24 0 0 1 10.24-10.24h43.52a10.24 10.24 0 0 1 10.24 10.24v43.52a10.24 10.24 0 0 1-10.24 10.24z" p-id="53439" fill="#707070"></path><path d="M288 640m10.24 0l43.52 0q10.24 0 10.24 10.24l0 235.52q0 10.24-10.24 10.24l-43.52 0q-10.24 0-10.24-10.24l0-235.52q0-10.24 10.24-10.24Z" p-id="53440" fill="#707070"></path><path d="M312.64 599.36L176 736a10.4 10.4 0 0 0 0 14.56l32 30.08a10.4 10.4 0 0 0 14.56 0l90.72-90.88a10.56 10.56 0 0 1 14.72 0l90.72 90.88a10.4 10.4 0 0 0 14.56 0L464 749.92a10.4 10.4 0 0 0 0-13.92l-136-136a10.24 10.24 0 0 0-15.36-0.64z" p-id="53441" fill="#707070"></path></svg>