<?xml version="1.0" standalone="no"?><!DOCTYPE svg PUBLIC "-//W3C//DTD SVG 1.1//EN" "http://www.w3.org/Graphics/SVG/1.1/DTD/svg11.dtd"><svg t="1620957248232" class="icon" viewBox="0 0 1137 1024" version="1.1" xmlns="http://www.w3.org/2000/svg" p-id="83585" xmlns:xlink="http://www.w3.org/1999/xlink" width="222.0703125" height="200"><defs><style type="text/css"></style></defs><path d="M1059.783111 19.456H78.165333C35.498667 19.456 0.967111 54.272 0.967111 97.223111v0.398222c0 42.951111 34.588444 77.824 77.198222 77.824h981.617778c42.609778 0 77.198222-34.872889 77.198222-77.824v-0.398222c0-42.951111-34.588444-77.767111-77.198222-77.767111z m-0.398222 414.264889H78.506667A77.937778 77.937778 0 0 0 0.967111 511.886222v0.625778c0 43.178667 34.702222 78.165333 77.596445 78.165333h980.764444a77.937778 77.937778 0 0 0 77.653333-78.165333v-0.568889a77.937778 77.937778 0 0 0-77.596444-78.222222z m0.398222 415.288889H78.165333c-42.666667 0-77.198222 34.816-77.198222 77.767111v0.398222c0 42.951111 34.588444 77.767111 77.198222 77.767111h981.617778c42.609778 0 77.198222-34.816 77.198222-77.767111v-0.398222c0-42.951111-34.588444-77.824-77.198222-77.824z" fill="#2E87E4" p-id="83586"></path></svg>