<?xml version="1.0" standalone="no"?><!DOCTYPE svg PUBLIC "-//W3C//DTD SVG 1.1//EN" "http://www.w3.org/Graphics/SVG/1.1/DTD/svg11.dtd"><svg t="1620955983217" class="icon" viewBox="0 0 1024 1024" version="1.1" xmlns="http://www.w3.org/2000/svg" p-id="55619" xmlns:xlink="http://www.w3.org/1999/xlink" width="200" height="200"><defs><style type="text/css"></style></defs><path d="M657.852 927.953h-303.02c-135.284 0-245.97-110.687-245.97-245.97V342.964c0-135.284 110.687-245.97 245.97-245.97h303.02c135.284 0 245.97 110.687 245.97 245.97v339.018c0 135.284-110.686 245.971-245.97 245.971z" fill="#3DA4FF" p-id="55620"></path><path d="M670.413 296.484H342.271c-15.195 0-27.528 12.333-27.528 27.528v317.35c0 11.671 7.267 21.803 18.058 25.766l164.071 59.683a27.99 27.99 0 0 0 18.94 0l164.071-59.683c10.792-3.963 18.058-14.313 18.058-25.766v-317.35c0-15.195-12.332-27.528-27.528-27.528z m-52.099 172.264l-43.513 42.415a11.317 11.317 0 0 0-3.255 10.019l10.272 59.891c1.586 9.247-8.12 16.298-16.424 11.933l-53.785-28.277a11.316 11.316 0 0 0-10.534 0l-53.785 28.277c-8.304 4.366-18.01-2.686-16.424-11.933l10.272-59.891a11.32 11.32 0 0 0-3.255-10.019l-43.513-42.415c-6.718-6.549-3.011-17.958 6.273-19.307l60.134-8.738a11.322 11.322 0 0 0 8.523-6.192l26.893-54.49c4.152-8.413 16.149-8.413 20.301 0l26.893 54.49a11.32 11.32 0 0 0 8.523 6.192l60.134 8.738c9.282 1.349 12.989 12.758 6.27 19.307z" fill="#FFFFFF" p-id="55621"></path><path d="M657.852 927.953h-303.02c-135.284 0-245.97-110.687-245.97-245.97V342.964c0-135.284 110.687-245.97 245.97-245.97h303.02c135.284 0 245.97 110.687 245.97 245.97v339.018c0 135.284-110.686 245.971-245.97 245.971z" fill="#57DFAA" p-id="55622"></path><path d="M558.75 752.962h-91.595c-13.584 0-24.699-11.115-24.699-24.699V248.187c0-13.584 11.115-24.699 24.699-24.699h91.595c13.584 0 24.699 11.115 24.699 24.699v480.076c0 13.585-11.114 24.699-24.699 24.699zM407.258 751.462h-91.595c-13.584 0-24.699-11.115-24.699-24.699V395.409c0-13.584 11.115-24.699 24.699-24.699h91.595c13.584 0 24.699 11.115 24.699 24.699v331.354c0 13.584-11.115 24.699-24.699 24.699zM710.243 752.961h-91.595c-13.584 0-24.699-11.115-24.699-24.699V524.683c0-13.584 11.115-24.699 24.699-24.699h91.595c13.584 0 24.699 11.115 24.699 24.699v203.579c0 13.585-11.115 24.699-24.699 24.699z" fill="#FFFFFF" p-id="55623"></path><path d="M657.542 927.478h-303.02c-135.284 0-245.97-110.687-245.97-245.97V342.49c0-135.284 110.687-245.97 245.97-245.97h303.02c135.284 0 245.97 110.687 245.97 245.97v339.018c0 135.284-110.687 245.97-245.97 245.97z" fill="#FF6B43" p-id="55624"></path><path d="M437.021 460.592c-8.091 15.837-13.255 33.395-14.288 52.158-0.172 3.615-0.345 7.403-0.172 11.017-1.205 0.172-2.583 0.172-3.959 0.172-19.969 0-38.904-5.164-55.085-14.46a112.787 112.787 0 0 1-58.356-98.981c0-62.659 50.782-113.613 113.442-113.613 55.601 0 101.907 40.282 111.547 93.129-40.454 7.919-74.71 34.429-93.129 70.578z" fill="#FFFFFF" p-id="55625"></path><path d="M532.042 410.499c0 6.886-0.688 13.772-1.893 20.314-17.902 5.164-33.911 15.664-45.618 29.78-12.738 14.804-20.828 33.74-22.206 54.569-7.919 3.443-16.354 5.853-25.133 7.23-0.171-2.926 0-5.68 0.172-8.607 1.205-19.451 7.058-37.527 16.354-53.191 16.698-28.404 45.101-49.06 77.981-55.946 0.343 1.892 0.343 3.785 0.343 5.851zM579.381 612.249c-9.295 2.41-19.107 3.443-29.092 2.754-46.306-2.754-82.8-38.732-87.447-83.488l-23.928 9.468c8.952 53.365 53.536 95.538 109.826 99.154 12.738 0.688 25.477-0.516 37.527-3.787-1.549-8.264-3.787-16.355-6.886-24.101z m8.607 38.732c-10.328 2.583-21.001 3.959-31.673 3.959-2.927 0-5.681-0.172-8.435-0.344-35.633-2.238-68.341-18.076-91.924-44.93-16.181-18.075-26.682-39.765-31.158-63.003l-6.197 2.41-55.085-21.862-17.214-6.886c-55.086 25.65-97.432 78.497-97.432 139.263v55.429h339.463v-55.429c0-2.926-0.172-5.681-0.345-8.607zM417.224 708.82l-37.354-59.905 28.403-92.096h17.731l28.575 92.096-37.355 59.905z" fill="#FFFFFF" p-id="55626"></path><path d="M730.35 663.891l-77.981-72.127 3.099-4.648c11.533-17.386 18.247-37.527 19.623-58.527 1.55-24.788-4.647-48.199-16.525-67.996-19.28-32.88-54.053-55.774-94.85-58.356a116.272 116.272 0 0 0-32.018 2.41c-32.88 6.886-61.282 27.542-77.981 55.946-9.295 15.664-15.149 33.74-16.354 53.191-0.172 2.927-0.344 5.681-0.172 8.607 0 6.37 0.689 12.567 1.722 18.592 8.952 53.365 53.536 95.538 109.826 99.154 12.738 0.688 25.477-0.516 37.527-3.787 15.837-4.132 30.641-11.362 43.724-21.69l4.304-3.271 77.981 72.127c5.336 4.992 13.771 4.647 18.763-0.86 4.993-5.338 4.648-13.773-0.688-18.765z m-150.969-51.642c-9.295 2.41-19.107 3.443-29.092 2.754-46.306-2.754-82.8-38.732-87.447-83.488a84.279 84.279 0 0 1-0.517-16.181v-0.172c1.377-20.828 9.468-39.765 22.206-54.569 11.707-14.116 27.716-24.616 45.618-29.78 10.157-2.927 20.83-4.132 31.846-3.443v-0.172c26.683 1.721 50.094 14.288 66.103 33.396 15.149 17.902 23.583 41.314 22.035 66.446-2.583 41.657-32.192 75.397-70.752 85.209z" fill="#FFFFFF" p-id="55627"></path><path d="M730.35 663.891l-77.981-72.127 3.099-4.648c11.533-17.386 18.247-37.527 19.623-58.527 1.55-24.788-4.647-48.199-16.525-67.996-19.28-32.88-54.053-55.774-94.85-58.356a116.272 116.272 0 0 0-32.018 2.41c-32.88 6.886-61.282 27.542-77.981 55.946-9.295 15.664-15.149 33.74-16.354 53.191-0.172 2.927-0.344 5.681-0.172 8.607 0 6.37 0.689 12.567 1.722 18.592 8.952 53.365 53.536 95.538 109.826 99.154 12.738 0.688 25.477-0.516 37.527-3.787 15.837-4.132 30.641-11.362 43.724-21.69l4.304-3.271 77.981 72.127c5.336 4.992 13.771 4.647 18.763-0.86 4.993-5.338 4.648-13.773-0.688-18.765z m-150.969-51.642c-9.295 2.41-19.107 3.443-29.092 2.754-46.306-2.754-82.8-38.732-87.447-83.488a84.279 84.279 0 0 1-0.517-16.181v-0.172c1.377-20.828 9.468-39.765 22.206-54.569 11.707-14.116 27.716-24.616 45.618-29.78 10.157-2.927 20.83-4.132 31.846-3.443v-0.172c26.683 1.721 50.094 14.288 66.103 33.396 15.149 17.902 23.583 41.314 22.035 66.446-2.583 41.657-32.192 75.397-70.752 85.209z" fill="#FFFFFF" p-id="55628"></path></svg>