<?xml version="1.0" standalone="no"?><!DOCTYPE svg PUBLIC "-//W3C//DTD SVG 1.1//EN" "http://www.w3.org/Graphics/SVG/1.1/DTD/svg11.dtd"><svg t="1620966574755" class="icon" viewBox="0 0 1024 1024" version="1.1" xmlns="http://www.w3.org/2000/svg" p-id="125394" xmlns:xlink="http://www.w3.org/1999/xlink" width="200" height="200"><defs><style type="text/css"></style></defs><path d="M514.479 22.402c269.386 0 488.398 219.013 488.398 489.493 0 269.384-219.013 488.397-488.398 488.397-270.479 0-489.491-219.013-489.491-488.397C24.987 241.415 244 22.402 514.479 22.402" fill="#36AEDB" p-id="125395"></path><path d="M189.247 772.52v1.096l1.096 2.188c-0.001-1.096-1.096-2.189-1.096-3.284m811.441-310.998c2.188 16.425 2.188 32.852 2.188 50.373 0 269.384-219.013 488.397-488.398 488.397-52.562 0-101.839-7.664-148.927-22.995L195.817 781.279c16.426 16.427 58.039 30.662 86.511-2.188l201.49-229.964c37.232 26.28 82.129 41.611 130.312 41.611 125.933 0 228.868-102.936 228.868-228.867 0-58.039-20.805-110.601-55.847-150.024l213.537 249.675M614.13 183.376c98.557 0 178.497 79.94 178.497 178.495s-79.94 178.496-178.497 178.496c-98.556 0-178.494-79.941-178.494-178.496s79.938-178.495 178.494-178.495" fill="#0087BF" p-id="125396"></path><path d="M602.085 210.753c96.366 15.331 145.645 72.274 159.88 159.878 14.235-85.414-71.18-176.305-159.88-159.878" fill="#FFFFFF" p-id="125397"></path><path d="M483.818 549.127l-201.49 229.964c-28.472 32.851-70.084 18.615-86.511 2.188-16.426-16.427-32.851-58.037-8.76-79.939L423.59 488.898c-24.092-36.138-38.328-79.94-38.328-127.027 0-125.932 102.936-228.868 228.867-228.868 125.933 0 228.868 102.937 228.868 228.868S740.063 590.738 614.13 590.738c-48.183 0-93.08-15.331-130.312-41.611M614.13 183.376c98.557 0 178.497 79.94 178.497 178.495s-79.94 178.496-178.497 178.496c-98.556 0-178.494-79.941-178.494-178.496s79.938-178.495 178.494-178.495" fill="#F3CF5E" p-id="125398"></path><path d="M619.331 254.024c54.706 8.095 82.68 38.163 90.76 84.419 8.081-45.1-40.406-93.092-90.76-84.419" fill="#FFFFFF" p-id="125399"></path></svg>