<?xml version="1.0" standalone="no"?><!DOCTYPE svg PUBLIC "-//W3C//DTD SVG 1.1//EN" "http://www.w3.org/Graphics/SVG/1.1/DTD/svg11.dtd"><svg t="1620958735852" class="icon" viewBox="0 0 1024 1024" version="1.1" xmlns="http://www.w3.org/2000/svg" p-id="89302" xmlns:xlink="http://www.w3.org/1999/xlink" width="200" height="200"><defs><style type="text/css"></style></defs><path d="M512 0C228.693333 0 0 228.693333 0 512s228.693333 512 512 512 512-228.693333 512-512S795.306667 0 512 0z m40.96 802.133333H256v-580.266666h354.986667l157.013333 163.84v133.12h-34.133333v-119.466667l-139.946667-143.36H290.133333v512h262.826667v34.133333z m-208.213333-293.546666v-34.133334h276.48v34.133334h-276.48z m157.013333 81.92v34.133333h-157.013333v-34.133333h157.013333z m-157.013333-191.146667v-34.133333h276.48v34.133333h-276.48z m494.933333 324.266667h-102.4v102.4h-68.266667v-102.4h-102.4v-68.266667h102.4v-102.4h68.266667v102.4h102.4v68.266667z" fill="#FF7300" p-id="89303"></path></svg>