<?xml version="1.0" standalone="no"?><!DOCTYPE svg PUBLIC "-//W3C//DTD SVG 1.1//EN" "http://www.w3.org/Graphics/SVG/1.1/DTD/svg11.dtd"><svg t="1637411696394" class="icon" viewBox="0 0 1024 1024" version="1.1" xmlns="http://www.w3.org/2000/svg" p-id="61210" xmlns:xlink="http://www.w3.org/1999/xlink" width="255" height="255"><defs><style type="text/css"></style></defs><path d="M947.2 140.8v435.2c0 28.16-23.04 51.2-51.2 51.2s-51.2-23.04-51.2-51.2v-384c0-28.16-48.64-51.2-76.8-51.2H230.4c-28.16 0-51.2 23.04-51.2 51.2v640c0 28.16 23.04 51.2 51.2 51.2h307.2c28.16 0 51.2 23.04 51.2 51.2s-23.04 51.2-51.2 51.2H179.2c-56.32 0-102.4-46.08-102.4-102.4v-742.4c0-56.32 46.08-102.4 102.4-102.4h665.6c56.32 0 102.4 46.08 102.4 102.4z m-614.4 358.4h281.6c28.16 0 51.2-23.04 51.2-51.2s-23.04-51.2-51.2-51.2H332.8c-28.16 0-51.2 23.04-51.2 51.2s23.04 51.2 51.2 51.2z m363.52-179.2c25.6 0 46.08-23.04 46.08-51.2s-20.48-51.2-46.08-51.2H327.68c-25.6 0-46.08 23.04-46.08 51.2s20.48 51.2 46.08 51.2h368.64z m199.68 384h-128v-128c0-28.16-23.04-51.2-51.2-51.2s-51.2 23.04-51.2 51.2v128h-128c-28.16 0-51.2 23.04-51.2 51.2s23.04 51.2 51.2 51.2h128v128c0 28.16 23.04 51.2 51.2 51.2s51.2-23.04 51.2-51.2v-128h128c28.16 0 51.2-23.04 51.2-51.2s-23.04-51.2-51.2-51.2z" p-id="61211" fill="#707070"></path></svg>