<?xml version="1.0" standalone="no"?><!DOCTYPE svg PUBLIC "-//W3C//DTD SVG 1.1//EN" "http://www.w3.org/Graphics/SVG/1.1/DTD/svg11.dtd"><svg t="1620960978949" class="icon" viewBox="0 0 1152 1024" version="1.1" xmlns="http://www.w3.org/2000/svg" p-id="97308" xmlns:xlink="http://www.w3.org/1999/xlink" width="225" height="200"><defs><style type="text/css"></style></defs><path d="M1088 0H352a64 64 0 0 0-64 64v320H64a64 64 0 0 0-64 64v512c0 35.328 28.672 64 64 64h736c35.328 0 64-28.672 64-64V752h224c35.328 0 64-28.672 64-64V64a64 64 0 0 0-64-64zM704 896H160a32 32 0 0 1-32-32V608h608v256a32 32 0 0 1-32 32z m160-272V448a64 64 0 0 0-64-64H416V224h608v400H864z" fill="#6236FF" p-id="97309"></path></svg>