<?xml version="1.0" standalone="no"?><!DOCTYPE svg PUBLIC "-//W3C//DTD SVG 1.1//EN" "http://www.w3.org/Graphics/SVG/1.1/DTD/svg11.dtd"><svg t="1637406798874" class="icon" viewBox="0 0 1024 1024" version="1.1" xmlns="http://www.w3.org/2000/svg" p-id="1841" xmlns:xlink="http://www.w3.org/1999/xlink" width="255" height="255"><defs><style type="text/css"></style></defs><path d="M256 256V149.333333c0-58.88 47.829333-106.666667 106.666667-106.666666h512c58.88 0 106.666667 47.829333 106.666666 106.666666v512c0 58.88-47.829333 106.666667-106.666666 106.666667h-106.666667v106.666667c0 58.88-47.829333 106.666667-106.666667 106.666666H149.333333c-58.88 0-106.666667-47.829333-106.666666-106.666666V362.666667c0-58.88 47.829333-106.666667 106.666666-106.666667h106.666667z m0 85.333333H149.333333c-11.733333 0-21.333333 9.6-21.333333 21.333334v512c0 11.733333 9.6 21.333333 21.333333 21.333333h512c11.733333 0 21.333333-9.6 21.333334-21.333333v-106.666667H362.666667c-58.88 0-106.666667-47.829333-106.666667-106.666667V341.333333z m85.333333-192v512c0 11.733333 9.6 21.333333 21.333334 21.333334h512c11.733333 0 21.333333-9.6 21.333333-21.333334V149.333333c0-11.733333-9.6-21.333333-21.333333-21.333333H362.666667c-11.733333 0-21.333333 9.6-21.333334 21.333333z" fill="#707070" p-id="1842"></path></svg>