<?xml version="1.0" standalone="no"?><!DOCTYPE svg PUBLIC "-//W3C//DTD SVG 1.1//EN" "http://www.w3.org/Graphics/SVG/1.1/DTD/svg11.dtd"><svg t="1637406895586" class="icon" viewBox="0 0 1024 1024" version="1.1" xmlns="http://www.w3.org/2000/svg" p-id="2696" xmlns:xlink="http://www.w3.org/1999/xlink" width="255" height="255"><defs><style type="text/css"></style></defs><path d="M1011.370667 553.589333L808.224 896.789333A85.696 85.696 0 0 1 734.784 938.666667H284.448c0-0.042667-49.216-0.042667-49.216-0.042667L284.448 853.333333h450.336L918.826667 542.442667l-554.912 1.493333-173.504 339.381333c-17.418667 34.848-51.392 55.413333-88.768 55.413334a104.874667 104.874667 0 0 1-24.149334-2.848C31.136 924.949333 0 885.6 0 837.984V196c0-41.173333 33.493333-74.666667 74.666667-74.666667l272.661333-0.352a74.261333 74.261333 0 0 1 66.506667 40.629334L441.546667 213.333333H725.333333c47.050667 0 85.333333 38.282667 85.333334 85.333334v90.666666h-85.333334V298.666667H390.453333l-49.472-92.341334L85.333333 206.656v631.328c0 9.994667 6.389333 13.589333 11.754667 14.858667 5.365333 1.28 12.693333 0.896 17.162667-8.032l173.685333-339.722667a85.002667 85.002667 0 0 1 75.744-46.485333l592.426667-1.589334a64.202667 64.202667 0 0 1 55.733333 32.224 64.053333 64.053333 0 0 1-0.469333 64.352z" p-id="2697" fill="#707070"></path></svg>