<?xml version="1.0" standalone="no"?><!DOCTYPE svg PUBLIC "-//W3C//DTD SVG 1.1//EN" "http://www.w3.org/Graphics/SVG/1.1/DTD/svg11.dtd"><svg t="1637408215911" class="icon" viewBox="0 0 1024 1024" version="1.1" xmlns="http://www.w3.org/2000/svg" p-id="35790" xmlns:xlink="http://www.w3.org/1999/xlink" width="255" height="255"><defs><style type="text/css"></style></defs><path d="M139.549 455.595c18.251-42.96 44.333-81.57 77.521-114.758s71.797-59.269 114.758-77.521c44.598-18.947 91.854-28.553 140.456-28.553H650.27c0.93 0 1.852 0.031 2.772 0.07V86.666c0-17.787 21.505-26.695 34.083-14.117l220.032 220.032c7.797 7.797 7.797 20.438 0 28.235L687.125 540.848c-12.577 12.577-34.083 3.67-34.083-14.117V362.694c-0.92 0.039-1.842 0.07-2.772 0.07H472.283c-128.636 0-233.288 104.652-233.288 233.288 0 128.636 104.652 233.288 233.288 233.288H650.27c35.346 0 64 28.653 64 64s-28.654 64-64 64H472.283c-48.603 0-95.858-9.606-140.456-28.554-42.961-18.251-81.57-44.333-114.758-77.521s-59.27-71.797-77.521-114.758c-18.947-44.598-28.554-91.854-28.554-140.456s9.608-95.858 28.555-140.456z" p-id="35791" fill="#707070"></path></svg>