<?xml version="1.0" standalone="no"?><!DOCTYPE svg PUBLIC "-//W3C//DTD SVG 1.1//EN" "http://www.w3.org/Graphics/SVG/1.1/DTD/svg11.dtd"><svg t="1620959611570" class="icon" viewBox="0 0 1024 1024" version="1.1" xmlns="http://www.w3.org/2000/svg" p-id="93543" xmlns:xlink="http://www.w3.org/1999/xlink" width="200" height="200"><defs><style type="text/css"></style></defs><path d="M517.266286 50.176a174.518857 174.518857 0 0 0-174.372572 168.96H122.733714a44.544 44.544 0 0 0 0 88.941714h49.005715v497.590857c0 93.403429 63.341714 169.691429 141.677714 169.691429h398.848c78.116571 0 141.604571-75.849143 141.604571-169.691429v-497.371428h44.470857a44.544 44.544 0 0 0 0-88.941714h-206.994285A174.08 174.08 0 0 0 517.266286 50.176z m-91.062857 168.96a91.136 91.136 0 0 1 91.209142-85.577143c48.64 0 87.917714 37.522286 90.697143 85.577143H426.276571z m-112.932572 673.133714c-27.794286 0-58.294857-35.620571-58.294857-86.601143v-497.371428h515.364571v497.810286c0 50.834286-30.500571 86.601143-58.221714 86.601142H313.270857v-0.438857z" fill="#E02020" opacity=".7" p-id="93544"></path><path d="M373.028571 785.334857c20.260571 0 37.010286-20.333714 37.010286-45.787428V478.134857c0-25.526857-16.603429-45.860571-37.010286-45.860571-20.333714 0-37.083429 20.333714-37.083428 45.860571v261.412572c0 25.307429 16.310857 45.787429 37.083428 45.787428z m134.144 0c20.333714 0 37.083429-20.333714 37.083429-45.787428V478.134857c0-25.526857-16.603429-45.860571-37.083429-45.860571-20.333714 0-37.083429 20.333714-37.083428 45.860571v261.412572c0 25.307429 16.822857 45.787429 37.083428 45.787428z m141.165715 0c20.333714 0 37.083429-20.333714 37.083428-45.787428V478.134857c0-25.526857-16.603429-45.860571-37.083428-45.860571-20.333714 0-37.083429 20.333714-37.083429 45.860571v261.412572c0 25.307429 16.164571 45.787429 37.083429 45.787428z" fill="#E02020" opacity=".7" p-id="93545"></path></svg>