<?xml version="1.0" standalone="no"?><!DOCTYPE svg PUBLIC "-//W3C//DTD SVG 1.1//EN" "http://www.w3.org/Graphics/SVG/1.1/DTD/svg11.dtd"><svg t="1620960898540" class="icon" viewBox="0 0 1024 1024" version="1.1" xmlns="http://www.w3.org/2000/svg" p-id="94343" xmlns:xlink="http://www.w3.org/1999/xlink" width="200" height="200"><defs><style type="text/css"></style></defs><path d="M784.9984 125.0816H221.5936C169.984 125.0816 128 167.1168 128 219.1872v30.976h750.592v-31.488c0-51.5584-42.0864-93.5936-93.5936-93.5936zM620.8512 62.5664L634.88 161.1264H371.712l13.9776-98.56h235.1616zM628.3776 0H378.1632c-26.0096 0-50.0224 20.992-53.504 46.5408l-18.5344 131.072a39.8336 39.8336 0 0 0 40.5504 46.592h312.7296c26.0096 0 44.032-21.0432 40.4992-46.592L681.472 46.592C678.4 20.992 654.336 0 628.3776 0z m172.1344 312.7296H206.08C171.52 312.7296 146.0224 340.736 148.992 375.296l51.0464 563.4048c3.0208 34.048 34.048 62.5664 68.096 62.5664h469.2992a69.632 69.632 0 0 0 68.096-62.5664L857.0368 375.296a55.808 55.808 0 0 0-56.5248-62.5664zM378.1632 875.6736H284.16L253.0816 437.76h125.0816v437.8624z m187.648 0H440.7296V437.76h125.0816v437.8624z m156.672 0H628.3264V437.76h125.0816l-31.0272 437.8624z" fill="#F2284F" p-id="94344"></path></svg>