<?xml version="1.0" standalone="no"?><!DOCTYPE svg PUBLIC "-//W3C//DTD SVG 1.1//EN" "http://www.w3.org/Graphics/SVG/1.1/DTD/svg11.dtd"><svg t="1637409455287" class="icon" viewBox="0 0 1024 1024" version="1.1" xmlns="http://www.w3.org/2000/svg" p-id="54961" xmlns:xlink="http://www.w3.org/1999/xlink" width="255" height="255"><defs><style type="text/css"></style></defs><path d="M314.181818 430.545455c0-18.618182 16.290909-34.909091 34.909091-34.909091s34.909091 16.290909 34.909091 34.909091V721.454545c0 18.618182-16.290909 34.909091-34.909091 34.909091s-34.909091-16.290909-34.909091-34.909091V430.545455z m325.818182 0c0-18.618182 16.290909-34.909091 34.909091-34.909091s34.909091 16.290909 34.909091 34.909091V721.454545c0 18.618182-16.290909 34.909091-34.909091 34.909091s-34.909091-16.290909-34.909091-34.909091V430.545455z m-162.909091 0c0-18.618182 16.290909-34.909091 34.909091-34.909091s34.909091 16.290909 34.909091 34.909091V721.454545c0 18.618182-16.290909 34.909091-34.909091 34.909091s-34.909091-16.290909-34.909091-34.909091V430.545455z m325.818182-174.545455h-581.818182v512c0 83.781818 67.490909 151.272727 151.272727 151.272727h279.272728c83.781818 0 151.272727-67.490909 151.272727-151.272727V256zM386.327273 186.181818h249.018182c-13.963636-46.545455-62.836364-81.454545-125.672728-81.454545S400.290909 139.636364 386.327273 186.181818z m-69.818182 0c13.963636-86.109091 97.745455-151.272727 195.490909-151.272727s183.854545 65.163636 195.490909 151.272727H954.181818c18.618182 0 34.909091 16.290909 34.909091 34.909091S972.8 256 954.181818 256h-81.454545v512c0 121.018182-100.072727 221.090909-221.090909 221.090909H372.363636c-121.018182 0-221.090909-100.072727-221.090909-221.090909V256H69.818182c-18.618182 0-34.909091-16.290909-34.909091-34.909091S51.2 186.181818 69.818182 186.181818h246.690909z" fill="#707070" p-id="54962"></path></svg>