<?xml version="1.0" standalone="no"?><!DOCTYPE svg PUBLIC "-//W3C//DTD SVG 1.1//EN" "http://www.w3.org/Graphics/SVG/1.1/DTD/svg11.dtd"><svg t="1637411465495" class="icon" viewBox="0 0 1024 1024" version="1.1" xmlns="http://www.w3.org/2000/svg" p-id="56788" xmlns:xlink="http://www.w3.org/1999/xlink" width="255" height="255"><defs><style type="text/css"></style></defs><path d="M366.32 573.808a15.68 15.68 0 0 1 9.44 3.168l235.568 168.192c4.448 3.104 7.04 8.288 7.04 13.696 0 5.424-2.656 10.496-7.088 13.712l-235.52 168.192c-2.88 2.016-6.224 3.168-9.728 3.168a16.96 16.96 0 0 1-16.88-16.88v-67.28C205.856 859.776 80 720.736 80 590.576c43.248 39.28 125.856 67.264 269.152 67.264v-67.264c0-6.288 3.52-12.048 9.104-14.864a16.48 16.48 0 0 1 7.776-1.904z m434.032 18.592c107.712 0 138.816 68.368 138.816 141.632v121.472c0 30.4 1.376 60.192 4.832 80.864h-76.72l-5.472-37.328h-2.016c-20.8 26.208-56.048 44.88-99.52 44.88-67.68 0-105.696-49.024-105.696-100.112 0-84.96 75.28-127.808 199.68-127.12v-5.52c0-22.128-8.976-58.704-68.416-58.704-33.184 0-67.68 10.32-90.56 24.832l-16.512-55.232c24.88-15.152 68.368-29.664 121.584-29.664z m-61.52 242.432c0 33.168 21.44 48.368 48.384 48.368 33.872 0 58.688-22.176 66.304-46.352 2.08-6.176 2.752-13.088 2.752-18.56v-46.352c-60.064-1.328-117.44 11.792-117.44 62.88zM225.296 80v142.72h1.376c20.8-32.368 57.376-53.92 107.84-53.92 82.128 0 140.864 68.448 140.176 170.672 0 120.96-76.656 181.04-152.64 181.04-43.52 0-82.24-16.64-106.432-58.08h-1.328l-4.192 50.4H137.632c1.376-22.688 2.72-60.064 2.72-94.56V80h84.944z m78.048 155.232c-34.512 0-65.552 24.816-75.232 62.08-1.44 6.288-2.816 13.824-2.816 22.176v54.56c0 6.848 0.752 13.808 2.128 20.032 8.928 33.872 38.656 59.376 75.28 59.376 53.216 0 85.648-42.848 85.648-110.464 0-59.392-28.272-107.76-85.008-107.76z" fill="#707070" p-id="56789"></path></svg>