<?xml version="1.0" standalone="no"?><!DOCTYPE svg PUBLIC "-//W3C//DTD SVG 1.1//EN" "http://www.w3.org/Graphics/SVG/1.1/DTD/svg11.dtd"><svg t="1620958324376" class="icon" viewBox="0 0 1066 1024" version="1.1" xmlns="http://www.w3.org/2000/svg" p-id="86506" xmlns:xlink="http://www.w3.org/1999/xlink" width="208.203125" height="200"><defs><style type="text/css"></style></defs><path d="M866.773333 559.402667h-322.218666c-18.261333 0-32.554667 15.701333-32.554667 35.498666v308.224c0 19.882667 14.293333 35.413333 32.554667 35.413334h322.218666c18.346667 0 32.64-15.616 32.64-35.413334v-308.224c0-19.797333-15.786667-35.498667-32.64-35.498666z m-25.728 321.024h-270.848v-262.826667h270.848v262.826667zM512.042667 120.746667c0-19.797333-14.293333-35.413333-32.597334-35.413334H157.141333c-18.176 0-32.469333 15.616-32.469333 35.413334v308.309333c-0.085333 19.882667 15.530667 35.498667 32.469333 35.498667h322.261334c18.304 0 32.597333-15.701333 32.597333-35.498667V120.746667zM408.746667 870.357333c-109.098667-9.813333-192.554667-81.749333-198.826667-200.490666h49.322667c8.874667 0 14.08-9.898667 9.130666-17.152l-81.450666-121.173334a11.093333 11.093333 0 0 0-18.261334 0L87.210667 652.8a11.008 11.008 0 0 0 9.173333 17.152h50.602667c5.034667 154.453333 114.773333 254.592 255.36 268.672 18.261333 1.408 35.242667-14.208 35.242666-34.133333a33.92 33.92 0 0 0-28.8-34.048v-0.042667z m518.826666-550.4h-53.973333c-19.2-134.442667-121.941333-221.952-251.946667-234.538666-18.176-1.408-35.157333 14.208-35.157333 34.133333 1.28 17.024 12.970667 32.64 28.586667 34.048 97.28 9.813333 175.274667 67.626667 194.261333 166.4h-44.586667c-8.874667 0-14.08 9.813333-9.173333 17.152l81.493333 121.173333c2.133333 3.114667 5.546667 4.693333 8.832 4.821334v0.085333a11.264 11.264 0 0 0 9.429334-4.864l81.408-121.173333a11.050667 11.050667 0 0 0-9.130667-17.194667z" fill="#D7000F" p-id="86507"></path></svg>