<?xml version="1.0" standalone="no"?><!DOCTYPE svg PUBLIC "-//W3C//DTD SVG 1.1//EN" "http://www.w3.org/Graphics/SVG/1.1/DTD/svg11.dtd"><svg t="1637406955389" class="icon" viewBox="0 0 1024 1024" version="1.1" xmlns="http://www.w3.org/2000/svg" p-id="3448" xmlns:xlink="http://www.w3.org/1999/xlink" width="255" height="255"><defs><style type="text/css"></style></defs><path d="M475.428571 219.428571c-21.942857 0-36.571429 14.628571-36.571428 36.571429v219.428571c0 21.942857 14.628571 36.571429 36.571428 36.571429h146.285715c21.942857 0 36.571429-14.628571 36.571428-36.571429S643.657143 438.857143 621.714286 438.857143H512V256c0-21.942857-14.628571-36.571429-36.571429-36.571429m0-219.428571C365.714286 0 256 36.571429 175.542857 109.714286l-7.314286 7.314285 14.628572-58.514285c7.314286-21.942857-7.314286-36.571429-29.257143-43.885715-14.628571-7.314286-36.571429 7.314286-43.885714 21.942858l-36.571429 146.285714c-7.314286 14.628571 7.314286 36.571429 29.257143 43.885714l138.971429 36.571429c21.942857 7.314286 36.571429-7.314286 43.885714-29.257143 7.314286-14.628571-7.314286-36.571429-21.942857-43.885714l-58.514286-14.628572c7.314286 0 7.314286-7.314286 14.628571-7.314286C292.571429 102.4 380.342857 73.142857 475.428571 73.142857c219.428571 0 402.285714 182.857143 402.285715 402.285714S694.857143 877.714286 475.428571 877.714286 73.142857 694.857143 73.142857 475.428571C73.142857 453.485714 58.514286 438.857143 36.571429 438.857143s-36.571429 14.628571-36.571429 36.571428C0 738.742857 212.114286 950.857143 475.428571 950.857143S950.857143 738.742857 950.857143 475.428571 738.742857 0 475.428571 0" p-id="3449" fill="#707070"></path></svg>