<?xml version="1.0" standalone="no"?><!DOCTYPE svg PUBLIC "-//W3C//DTD SVG 1.1//EN" "http://www.w3.org/Graphics/SVG/1.1/DTD/svg11.dtd"><svg t="1637407230158" class="icon" viewBox="0 0 1024 1024" version="1.1" xmlns="http://www.w3.org/2000/svg" p-id="6792" xmlns:xlink="http://www.w3.org/1999/xlink" width="255" height="255"><defs><style type="text/css"></style></defs><path d="M98 124.2v777.9c0 14.3 11.6 25.9 25.9 25.9h777.9c14.3 0 25.9-11.6 25.9-25.9V124.2c0-14.3-11.6-25.9-25.9-25.9H123.9c-14.3-0.1-25.9 11.5-25.9 25.9z m207.4 37.6h414.9v191.7H305.4V161.8z m558.8 702.7H162.6V161.8h104v230.6h492.7V161.8h105v702.7z" p-id="6793" fill="#707070"></path><path d="M605.1 192h70v128h-70z" p-id="6794" fill="#707070"></path><path d="M98 124.2v777.9c0 14.3 11.6 25.9 25.9 25.9h777.9c14.3 0 25.9-11.6 25.9-25.9V124.2c0-14.3-11.6-25.9-25.9-25.9H123.9c-14.3-0.1-25.9 11.5-25.9 25.9z m207.4 37.6h414.9v191.7H305.4V161.8z m558.8 702.7H162.6V161.8h104v230.6h492.7V161.8h105v702.7z" p-id="6795" fill="#707070"></path><path d="M605.1 192h70v128h-70zM641.9 607.4H295.2c-17.2 0-31.2 13.9-31.2 30.9v1.7c0 17.1 14 30.9 31.2 30.9h347.5L538.8 775.2c-12 12.1-12 31.4 0 43.5l0.2 0.2c12 12 31.5 12.2 43.6 0.3l0.3-0.3 168.9-169.5c6-6 6-15.7 0-21.7l-33-33.2L585.7 461c-12.1-12.1-31.8-12.2-44.1-0.2l-0.2 0.2-1 1c-12 12.1-12 31.5 0 43.5l101.5 101.9z" p-id="6796" fill="#707070"></path></svg>