<?xml version="1.0" standalone="no"?><!DOCTYPE svg PUBLIC "-//W3C//DTD SVG 1.1//EN" "http://www.w3.org/Graphics/SVG/1.1/DTD/svg11.dtd"><svg t="1620992532638" class="icon" viewBox="0 0 1024 1024" version="1.1" xmlns="http://www.w3.org/2000/svg" p-id="6423" xmlns:xlink="http://www.w3.org/1999/xlink" width="200" height="200"><defs><style type="text/css"></style></defs><path d="M336.2 340.9h231.7c20.9 0 38.1-17.2 38.1-38.1V126.6c0-20.9-17.2-38.1-38.1-38.1H336.2c-20.9 0-38.1 17.2-38.1 38.1v176.1c0 21 17.2 38.2 38.1 38.2z m0 0" fill="#F4A429" p-id="6424"></path><path d="M775.1 64.6h-83.4V360c0 12.4-10.1 22.6-22.6 22.6H229.3c-12.4 0-22.6-10.1-22.6-22.7l1.8-295.3h-70c-33.8 0-61.2 27.4-61.2 61.2v772c0 33.8 27.4 61.2 61.2 61.2h746.2c33.8 0 61.2-27.4 61.2-61.2V257.4L775.1 64.6z m57.6 774.2c0 17.9-14.7 32.7-32.7 32.7H237.3c-17.9 0-32.7-14.7-32.7-32.7V502.7c0-17.9 14.7-32.7 32.7-32.7h562.8c17.9 0 32.7 14.7 32.7 32.7v336.1z m0 0" fill="#1C5E9A" p-id="6425"></path><path d="M726.2 588h-426c-16.2 0-29.4 13.3-29.4 29.4 0 16.2 13.3 29.4 29.4 29.4h426c16.2 0 29.4-13.3 29.4-29.4 0.1-16.1-13.2-29.4-29.4-29.4z m0 153h-426c-16.2 0-29.4 13.3-29.4 29.4 0 16.2 13.3 29.4 29.4 29.4h426c16.2 0 29.4-13.3 29.4-29.4 0.1-16.1-13.2-29.4-29.4-29.4z m0 0" fill="#1C5E9A" p-id="6426"></path></svg>