<?xml version="1.0" standalone="no"?><!DOCTYPE svg PUBLIC "-//W3C//DTD SVG 1.1//EN" "http://www.w3.org/Graphics/SVG/1.1/DTD/svg11.dtd"><svg t="1620956611520" class="icon" viewBox="0 0 1024 1024" version="1.1" xmlns="http://www.w3.org/2000/svg" p-id="79213" xmlns:xlink="http://www.w3.org/1999/xlink" width="200" height="200"><defs><style type="text/css"></style></defs><path d="M800 496c-153.6 0-272-118.4-272-272 0-60.8 19.2-115.2 51.2-160H64v896h128V640h640v320h128V444.8c-44.8 32-99.2 51.2-160 51.2z" fill="#1177D7" p-id="79214"></path><path d="M800 496c-153.6 0-272-118.4-272-272 0-60.8 19.2-115.2 51.2-160H192v448h640v-19.2c-9.6 3.2-22.4 3.2-32 3.2z" fill="#FFFFFF" p-id="79215"></path><path d="M192 640v320h640V640H192z m576 256h-128v-192h128v192z" fill="#727272" p-id="79216"></path><path d="M256 128h256v64H256zM256 256h256v64H256z" fill="#727272" opacity=".5" p-id="79217"></path><path d="M800 0c124.8 0 224 99.2 224 224s-99.2 224-224 224-224-99.2-224-224 99.2-224 224-224z" fill="#039C23" p-id="79218"></path><path d="M672 224m-32 0a32 32 0 1 0 64 0 32 32 0 1 0-64 0Z" fill="#FFFFFF" p-id="79219"></path><path d="M800 224m-32 0a32 32 0 1 0 64 0 32 32 0 1 0-64 0Z" fill="#FFFFFF" p-id="79220"></path><path d="M928 224m-32 0a32 32 0 1 0 64 0 32 32 0 1 0-64 0Z" fill="#FFFFFF" p-id="79221"></path></svg>