<?xml version="1.0" standalone="no"?><!DOCTYPE svg PUBLIC "-//W3C//DTD SVG 1.1//EN" "http://www.w3.org/Graphics/SVG/1.1/DTD/svg11.dtd"><svg t="1620956076519" class="icon" viewBox="0 0 1024 1024" version="1.1" xmlns="http://www.w3.org/2000/svg" p-id="62494" xmlns:xlink="http://www.w3.org/1999/xlink" width="200" height="200"><defs><style type="text/css"></style></defs><path d="M125.752195 74.926829H874.146341a74.926829 74.926829 0 0 1 74.92683 74.92683v748.519024A51.075122 51.075122 0 0 1 897.623415 949.073171H125.752195A51.075122 51.075122 0 0 1 74.926829 898.372683V126.501463A51.075122 51.075122 0 0 1 125.752195 74.926829z" fill="#3369BD" p-id="62495"></path><path d="M874.146341 74.926829a74.926829 74.926829 0 0 1 74.92683 74.92683v748.519024A51.2 51.2 0 0 1 897.623415 949.073171H125.752195A51.2 51.2 0 0 1 74.926829 898.372683V126.501463A51.2 51.2 0 0 1 125.752195 74.926829H874.146341m0-37.463414H125.752195A88.663415 88.663415 0 0 0 37.463415 126.501463v771.87122A88.663415 88.663415 0 0 0 125.752195 986.536585h771.87122A88.663415 88.663415 0 0 0 986.536585 898.372683V149.853659a112.390244 112.390244 0 0 0-112.390244-112.390244z" fill="#3369BD" p-id="62496"></path><path d="M476.78439 514.872195a133.12 133.12 0 1 1 132.995122-132.995122 133.244878 133.244878 0 0 1-132.995122 132.995122z m0-228.651707a95.656585 95.656585 0 1 0 95.531708 95.656585 95.656585 95.656585 0 0 0-95.531708-95.656585z" fill="#FFFFFF" p-id="62497"></path><path d="M668.721951 715.55122a18.731707 18.731707 0 0 1-18.731707-18.731708 169.459512 169.459512 0 0 0-338.794146 0 18.731707 18.731707 0 0 1-37.463415 0 206.922927 206.922927 0 0 1 413.720976 0 18.731707 18.731707 0 0 1-18.731708 18.731708zM594.54439 499.512195a18.731707 18.731707 0 0 1 0-37.463415 87.414634 87.414634 0 1 0 0-174.829268 18.731707 18.731707 0 0 1 0-37.463414 124.878049 124.878049 0 1 1 0 249.756097z" fill="#FFFFFF" p-id="62498"></path><path d="M770.872195 674.341463a18.731707 18.731707 0 0 1-18.731707-18.731707 155.598049 155.598049 0 0 0-155.473171-155.223415 18.731707 18.731707 0 0 1 0-37.463414 193.061463 193.061463 0 0 1 192.936585 192.811707 18.731707 18.731707 0 0 1-18.731707 18.606829z" fill="#FFFFFF" p-id="62499"></path></svg>