<?xml version="1.0" standalone="no"?><!DOCTYPE svg PUBLIC "-//W3C//DTD SVG 1.1//EN" "http://www.w3.org/Graphics/SVG/1.1/DTD/svg11.dtd"><svg t="1621045690561" class="icon" viewBox="0 0 1024 1024" version="1.1" xmlns="http://www.w3.org/2000/svg" p-id="8591" xmlns:xlink="http://www.w3.org/1999/xlink" width="200" height="200"><defs><style type="text/css"></style></defs><path d="M629.458824 719.811765a18.070588 18.070588 0 0 1 18.070588 18.070588v57.223529h57.223529a18.070588 18.070588 0 0 1 18.070588 18.070589v54.211764a18.070588 18.070588 0 0 1-18.070588 18.070589h-57.223529v57.223529a18.070588 18.070588 0 0 1-18.070588 18.070588h-54.211765a18.070588 18.070588 0 0 1-18.070588-18.070588v-57.223529H499.952941a18.070588 18.070588 0 0 1-18.070588-18.070589v-54.211764a18.070588 18.070588 0 0 1 18.070588-18.070589h57.22353V737.882353a18.070588 18.070588 0 0 1 18.070588-18.070588h54.211765zM873.411765 15.058824c41.562353 0 75.294118 33.731765 75.294117 75.294117v240.941177c0 41.562353-33.731765 75.294118-75.294117 75.294117H331.294118c-41.562353 0-75.294118-33.731765-75.294118-75.294117v-60.235294H132.517647a12.047059 12.047059 0 0 0-11.625412 8.854588L120.470588 283.105882v367.435294l0.421647 3.192471a12.047059 12.047059 0 0 0 11.625412 8.854588h123.482353v-90.352941c0-38.972235 29.635765-71.077647 67.584-74.932706L331.294118 496.941176h542.117647c38.972235 0 71.077647 29.635765 74.932706 67.584l0.361411 7.710118v240.941177a75.294118 75.294118 0 0 1-67.584 74.932705L873.411765 888.470588h-72.282353a18.070588 18.070588 0 0 1-18.070588-18.070588v-54.211765a18.070588 18.070588 0 0 1 18.070588-18.070588h45.17647a12.047059 12.047059 0 0 0 11.625412-8.854588l0.421647-3.192471V599.341176a12.047059 12.047059 0 0 0-8.854588-11.625411L846.305882 587.294118h-487.905882a12.047059 12.047059 0 0 0-11.625412 8.854588L346.352941 599.341176v186.729412a12.047059 12.047059 0 0 0 8.854588 11.625412L358.4 798.117647h45.176471a18.070588 18.070588 0 0 1 18.070588 18.070588v54.211765a18.070588 18.070588 0 0 1-18.070588 18.070588H331.294118a75.294118 75.294118 0 0 1-74.932706-67.584l-0.361412-7.710117v-60.235295h-150.588235l-7.710118-0.361411a75.294118 75.294118 0 0 1-67.222588-67.222589L30.117647 677.647059V256l0.361412-7.710118A75.294118 75.294118 0 0 1 105.411765 180.705882h150.588235v-90.352941c0-38.972235 29.635765-71.077647 67.584-74.932706L331.294118 15.058824z m-27.105883 90.352941h-487.905882a12.047059 12.047059 0 0 0-12.047059 12.047059v186.729411c0 6.625882 5.421176 12.047059 12.047059 12.047059h487.905882a12.047059 12.047059 0 0 0 12.047059-12.047059V117.458824a12.047059 12.047059 0 0 0-12.047059-12.047059z" fill="#1763FB" p-id="8592"></path></svg>