<?xml version="1.0" standalone="no"?><!DOCTYPE svg PUBLIC "-//W3C//DTD SVG 1.1//EN" "http://www.w3.org/Graphics/SVG/1.1/DTD/svg11.dtd"><svg t="1621046725498" class="icon" viewBox="0 0 1024 1024" version="1.1" xmlns="http://www.w3.org/2000/svg" p-id="32268" xmlns:xlink="http://www.w3.org/1999/xlink" width="200" height="200"><defs><style type="text/css"></style></defs><path d="M673.880247 758.858671a446.256587 446.256587 0 0 0-168.793716-98.971645 74.157429 74.157429 0 0 1-31.602473-124.242215 322.755947 322.755947 0 0 0 78.835051-252.648655 186.648543 186.648543 0 0 0-196.916495-163.317475A184.594953 184.594953 0 0 0 173.773958 299.139658a339.355802 339.355802 0 0 0 81.230906 241.410952 72.788368 72.788368 0 0 1-28.236867 114.88697 475.063896 475.063896 0 0 0-73.701075 33.770152 663.024455 663.024455 0 0 0-114.088351 83.05632 95.263774 95.263774 0 0 0 30.119324 158.525765 185.735836 185.735836 0 0 0 54.477188 19.109799 1730.435073 1730.435073 0 0 0 241.92435 23.216979c16.485767 0 32.914489 0.570442 49.400256 0a699.532728 699.532728 0 0 0 225.381539-35.025124c56.701911-21.676787 80.204111-52.708818 71.476352-107.186006a145.919002 145.919002 0 0 0-37.877333-72.046794z" fill="#A6A7B4" p-id="32269"></path><path d="M953.853062 555.268007a1463.297198 1463.297198 0 0 0-149.113475-76.439195c-30.860899-14.318088-40.330232-27.381204-30.803855-60.580915a88.646649 88.646649 0 0 1 15.458971-27.210072 317.507883 317.507883 0 0 0 65.372626-248.08512 171.132527 171.132527 0 0 0-326.292686-38.333687 280.429168 280.429168 0 0 1 93.951758 237.41786 440.095816 440.095816 0 0 1-98.401204 244.548382c8.955936 3.764916 16.029413 6.674169 22.817671 9.811598 87.220545 39.132305 172.273411 80.888641 219.905298 171.132528a20.193638 20.193638 0 0 0 16.200545 7.529831 457.608378 457.608378 0 0 0 185.621749-40.786586 81.801348 81.801348 0 0 0 46.605091-77.237814 112.947468 112.947468 0 0 0-61.322489-101.76681z" fill="#A6A7B4" p-id="32270"></path></svg>