<?xml version="1.0" standalone="no"?><!DOCTYPE svg PUBLIC "-//W3C//DTD SVG 1.1//EN" "http://www.w3.org/Graphics/SVG/1.1/DTD/svg11.dtd"><svg t="1621046221818" class="icon" viewBox="0 0 1024 1024" version="1.1" xmlns="http://www.w3.org/2000/svg" p-id="22995" xmlns:xlink="http://www.w3.org/1999/xlink" width="200" height="200"><defs><style type="text/css"></style></defs><path d="M1024 511.946628c0 282.766184-229.180444 511.946628-511.946628 511.946627S0 794.712811 0 511.946628C0 229.180444 229.180444 0 511.946628 0s512.053372 229.180444 512.053372 511.946628" fill="#22DDA7" p-id="22996"></path><path d="M327.705619 586.240801l40.029188-6.938393c4.163036-6.191181 27.219848-61.484833 25.938913-99.379131C392.286042 441.922235 369.335974 345.852184 280.631294 344.784739 191.819869 343.717294 163.319087 431.354529 163.319087 478.001876c0 46.754092 20.815178 98.525175 25.832169 102.047744l35.012197 6.191181c0 37.574064-73.226728 49.31596-95.963307 70.024392-22.736579 20.601689-21.135411 80.698843-7.472115 88.384447 30.742416 17.292609 153.071615 19.747733 153.071615 19.747733v-78.990931c0.853956-13.129574 56.68133-55.72063 61.591577-58.282497-16.438653-13.129574-8.432816-33.944751-7.685604-40.883144z m564.571667 79.204419c13.343063 8.753049 29.674971 91.373293 14.410507 91.373293H775.925779c0-13.129574 0.853956-57.428542 0-71.412071 0-12.275618-74.294173-69.383926-74.294173-69.383926v-41.096633c-7.792349-7.258626-13.449807-16.972376-16.118419-27.860314-3.736058-3.30908-8.326071-19.534244-9.180027-36.826853-5.550714 9.500261-9.71375 4.26978-12.275618-1.814657-3.30908-7.045137-4.163036-13.98353-5.016992-21.882623 0-7.045137 2.455124-13.98353 8.326071-19.320754-5.016992-21.882623-16.545398-72.693005 0.853957-109.306369 17.399354-36.720108 62.552278-44.619202 85.075367-45.473158 26.686125 1.921401 39.708954 11.955384 46.754091 19.21401 10.033983 1.707912 20.921922 6.084437 28.394038 13.129574 11.741895 11.314917 17.506098 27.967059 19.21401 43.658501 2.455124 26.259147-2.455124 53.372251-10.033983 78.777442 5.764203 5.230481 8.326071 13.129574 8.326071 21.028666-0.853956 8.753049-2.455124 17.506098-7.472115 25.405192-3.095591 4.376525-7.792349 7.472115-13.129574 8.112582-1.17419 18.25331-7.258626 34.798707-16.331908 49.209215 2.775357-5.657459-0.640467-0.426978-5.657459 3.949546 0 14.837486-0.747212 30.635672 0.853956 45.473158 4.163036 11.421662 13.343063 19.320755 22.52309 25.405191 28.394037 16.545398 38.854998 0.320234 65.541124 19.640988zM608.443657 553.897217l131.61597 117.845929c8.432816 7.57886 15.264464 22.950068 15.371208 34.691963l0.426978 48.782237v0.320233c0 11.421662-8.859794 20.708433-19.747733 20.708434H573.111227L544.396956 646.658188l22.309601-35.012196-41.7371-17.07912-41.843845 17.07912 22.309601 35.012196-16.652142 129.587825H313.295111c-10.781195 0-19.534244-9.180027-19.534244-20.601689v-0.533723l0.960701-48.675492c0.213489-11.741895 7.258626-27.219848 15.798186-34.905452l130.762014-117.63244 13.98353-3.202335c-2.668613-14.94423-12.275618-16.11842-15.798187-26.79287-1.814657-16.758887-3.522569-32.557073-5.23048-49.422704 0 0.853956-10.567706-1.707912-12.275618-2.668613-15.798186-9.71375-15.798186-49.422704-17.612842-66.18159-0.853956-8.005838 9.71375-14.090274 7.045137-28.180549-17.612843-82.086521 7.045137-119.980819 46.647347-132.256437 27.326592-11.528406 78.243719-31.809861 125.745022-2.668612l11.421662 10.567705 19.320754 3.522569c9.71375 5.337225 15.798186 23.804024 15.798187 23.804024 5.337225 20.281455 5.337225 21.989367 5.337225 42.270822-0.853956 8.005838-5.230481 44.939435-4.376525 56.467841 1.814657 8.753049 3.522569 9.71375 7.899093 17.612843 6.191181 13.236318 3.522569 31.703117 1.814657 44.939435-1.814657 7.045137-4.376525 17.612843-8.753049 23.804024-4.376525 7.045137-14.090274 7.045137-18.466799 14.090274-6.191181 11.528406-2.668613 27.326592-7.045137 38.748254-4.376525 14.090274-11.101428 14.410508-11.955384 32.02335 5.016992 1.17419 13.663296 3.522569 13.663296 3.522569" fill="#FFFFFF" p-id="22997"></path></svg>