<?xml version="1.0" standalone="no"?><!DOCTYPE svg PUBLIC "-//W3C//DTD SVG 1.1//EN" "http://www.w3.org/Graphics/SVG/1.1/DTD/svg11.dtd"><svg t="1620959358929" class="icon" viewBox="0 0 1182 1024" version="1.1" xmlns="http://www.w3.org/2000/svg" p-id="90112" xmlns:xlink="http://www.w3.org/1999/xlink" width="230.859375" height="200"><defs><style type="text/css"></style></defs><path d="M1096.388923 706.244923a49.388308 49.388308 0 1 1 69.789539 69.789539l-196.68677 196.765538a49.388308 49.388308 0 1 1-69.868307-69.868308l196.765538-196.686769z" fill="#D41045" p-id="90113"></path><path d="M49.230769 987.057231a49.152 49.152 0 1 1 0-98.382769h688.600616a49.152 49.152 0 1 1 0 98.461538H49.230769z m0-295.069539a49.152 49.152 0 1 1 0-98.461538h688.600616a49.152 49.152 0 0 1 0 98.461538H49.230769z m0-295.148307a49.152 49.152 0 1 1 0-98.304h688.600616a49.152 49.152 0 1 1 0 98.304H49.230769z m0-295.069539a49.152 49.152 0 1 1 0-98.382769h688.600616a49.152 49.152 0 0 1 0 98.461538H49.230769z m934.518154 836.135385a49.152 49.152 0 1 1-98.382769 0V52.539077a49.152 49.152 0 1 1 98.382769 0v885.366154z" fill="#D41045" p-id="90114"></path></svg>