<?xml version="1.0" standalone="no"?><!DOCTYPE svg PUBLIC "-//W3C//DTD SVG 1.1//EN" "http://www.w3.org/Graphics/SVG/1.1/DTD/svg11.dtd"><svg t="1637407976249" class="icon" viewBox="0 0 1024 1024" version="1.1" xmlns="http://www.w3.org/2000/svg" p-id="28397" xmlns:xlink="http://www.w3.org/1999/xlink" width="255" height="255"><defs><style type="text/css"></style></defs><path d="M404.439 507.61l63.659-63.659L468.098 685.415c0 24.146 19.756 43.902 43.902 43.902s43.902-19.756 43.902-43.902L555.902 443.95l63.65900001 63.659c17.561 17.56 43.902 17.56 61.46299999 0 17.561-17.561 17.561-43.903 0-61.464l-138.292-138.292s-2.19499999 0-2.195-2.195l-4.39-4.39c-2.196 0-2.196-2.196-4.39-2.196-2.196 0-2.196-2.195-4.391-2.195s-2.19499999 0-4.39-2.19499999l-19.75599999-1e-8c-2.196 0-2.196 0-4.39000001 2.195-2.196 0-2.196 0-4.391 2.195-2.19499999 0-4.38999999 2.195-4.38999999 2.195s-2.19499999 0-2.19500001 2.195l-6.586 6.58600001L342.976 448.34c-17.561 17.561-17.561 43.903 0 61.464 17.56 13.17 43.902 13.17 61.46299999-2.195z" p-id="28398" fill="#707070"></path><path d="M512 961.99999999C760.049 962 962 760.049 961.99999999 512s-201.951-450-449.99999999-449.99999999-450 201.951-449.99999999 449.99999999S263.951 962 512 961.99999999z m0-812.19499999c199.756 0 362.195 162.439 362.195 362.195S711.756 874.195 512 874.195 149.805 711.756 149.805 512 312.244 149.805 512 149.805z" p-id="28399" fill="#707070"></path></svg>