<?xml version="1.0" standalone="no"?><!DOCTYPE svg PUBLIC "-//W3C//DTD SVG 1.1//EN" "http://www.w3.org/Graphics/SVG/1.1/DTD/svg11.dtd"><svg t="1620954303937" class="icon" viewBox="0 0 1024 1024" version="1.1" xmlns="http://www.w3.org/2000/svg" p-id="51788" xmlns:xlink="http://www.w3.org/1999/xlink" width="200" height="200"><defs><style type="text/css"></style></defs><path d="M512.5632 1024a512 512 0 1 1 512-512 512 512 0 0 1-512 512z m280.576-577.024l-236.4416-236.4416c-1.2288-1.1776-2.816-1.6384-4.096-2.6624a45.6704 45.6704 0 0 0-2.7648-4.1984 51.2 51.2 0 0 0-72.2944 0L246.0672 435.1488a51.2 51.2 0 0 0 72.3456 72.3456l142.9504-143.0016v398.6944a51.2 51.2 0 0 0 102.4 0V365.4144l155.4944 155.4432a52.224 52.224 0 0 0 73.8816-73.8816z" fill="#41CE63" p-id="51789"></path></svg>